<?xml version="1.0" encoding="UTF-8"?> <svg xmlns="http://www.w3.org/2000/svg" viewBox="0 0 55.546 43.502" fill="none"><path fill="#014c26" fill-rule="nonzero" d="M 45.062 8.206 C 44.669 8.146 44.366 8.344 44.034 8.501 C 42.341 9.303 40.224 10.778 38.557 11.788 C 31.172 16.259 23.985 21.057 16.577 25.491 C 16.273 25.601 15.999 25.495 15.704 25.441 C 13.479 25.036 6.708 22.809 4.598 21.865 C 0 19.806 7.987 17.254 9.546 16.612 C 15.374 14.212 21.372 12.091 27.278 9.886 C 34.967 7.015 43.717 3.342 51.48 1.067 C 52.574 0.747 54.649 0 55.006 1.623 C 55.546 4.082 53.531 11.676 52.911 14.525 C 50.95 23.55 48.596 32.499 46.436 41.477 C 45.858 42.949 44.934 43.502 43.342 43.247 C 42.293 43.08 38.561 39.867 37.381 39.019 C 35.52 37.68 33.616 36.389 31.715 35.106 C 30.79 35.106 25.567 40.891 24.136 41.8 C 22.981 42.535 22.512 42.297 22.269 40.923 C 22.863 36.864 22.796 32.681 23.651 28.679 C 29.051 23.769 34.647 19.015 39.87 13.916 C 40.283 13.513 45.374 8.451 45.062 8.206"></path></svg> 